<?xml version="1.0" encoding="utf-8"?>
<!-- Generator: Adobe Illustrator 24.0.1, SVG Export Plug-In . SVG Version: 6.00 Build 0)  -->
<svg version="1.1" id="Calque_1" xmlns="http://www.w3.org/2000/svg" xmlns:xlink="http://www.w3.org/1999/xlink" x="0px" y="0px"
	 viewBox="0 0 126.8 24.6" style="enable-background:new 0 0 126.8 24.6;" xml:space="preserve">
<rect x="6.3" y="7.2" width="7.5" height="17.5"/>
<path d="M32.9,7.2H21.6v17.5h7.5V13.9h3.8c6.8,0,11.6,3.9,11.6,10.7l0,0h7.6l0,0C52.1,13.9,43.7,7.2,32.9,7.2z"/>
<path d="M74.7,6.4c-10,0-18.8,7.4-18.8,18.2l0,0h7.7l0,0c0-6.9,5.3-11.6,11.2-11.6c6,0,11.2,4.7,11.2,11.6l0,0h7.7l0,0
	C93.5,13.8,84.6,6.4,74.7,6.4z"/>
<path d="M109.8,20.6c-3.1-1.2-4.6-2.6-4.6-4.7c0-2.2,1.9-3.4,4-3.4c2.5,0,4.4,1.9,4.8,4.9h7.7c-1.1-8.3-6.7-11-12.2-11
	c-6.5,0-11.6,3.9-11.6,9.8c0,3.8,1.9,6.6,4.6,8.5h16.2c-1.4-1-3-1.9-4.8-2.6L109.8,20.6z"/>
</svg>
