<?xml version="1.0" encoding="utf-8"?>
<!-- Generator: Adobe Illustrator 24.0.1, SVG Export Plug-In . SVG Version: 6.00 Build 0)  -->
<svg version="1.1" id="Calque_1" xmlns="http://www.w3.org/2000/svg" xmlns:xlink="http://www.w3.org/1999/xlink" x="0px" y="0px"
	 viewBox="0 0 126.8 22.6" style="enable-background:new 0 0 126.8 22.6;" xml:space="preserve">
<rect x="6.3" y="0" width="7.5" height="17.5"/>
<path d="M32.9,10.7h-3.8V0h-7.5v17.5h11.3c10.8,0,19.2-6.7,19.2-17.5h-7.6C44.5,6.8,39.7,10.7,32.9,10.7z"/>
<path d="M74.7,11.7c-6.2,0-11.2-4.8-11.2-11.7h-7.7c0,11,8.9,18.3,18.8,18.3c10,0,18.8-7.4,18.8-18.3h-7.7
	C85.9,6.9,80.9,11.7,74.7,11.7z"/>
<path d="M118.5,0h-16.2c1.1,0.8,2.4,1.5,3.8,2l4.3,1.7c3,1.2,4.5,2.6,4.5,4.8c0,2.3-2,3.6-4.5,3.6c-3.1,0-5.3-2-5.6-5.4h-7.7
	c0.3,6.3,5.3,11.5,13.1,11.5c6.4,0,12.2-3.9,12.2-10.3C122.5,4.4,121,1.9,118.5,0z"/>
</svg>
