<?xml version="1.0" encoding="utf-8"?>
<!-- Generator: Adobe Illustrator 24.0.1, SVG Export Plug-In . SVG Version: 6.00 Build 0)  -->
<svg version="1.1" id="Calque_1" xmlns="http://www.w3.org/2000/svg" xmlns:xlink="http://www.w3.org/1999/xlink" x="0px" y="0px"
	 viewBox="0 0 126.8 47.2" style="enable-background:new 0 0 126.8 47.2;" xml:space="preserve">
<g>
	<path d="M13.8,42.1H6.3v-35h7.5V42.1z"/>
	<path d="M21.6,42.1v-35h11.3c10.8,0,19.2,6.7,19.2,17.5s-8.4,17.5-19.2,17.5H21.6z M32.9,13.9h-3.8v21.4h3.8
		c6.8,0,11.6-3.9,11.6-10.7S39.7,13.9,32.9,13.9z"/>
	<path d="M74.7,42.9c-10,0-18.8-7.3-18.8-18.3c0-10.9,8.9-18.2,18.8-18.2c10,0,18.8,7.4,18.8,18.2C93.5,35.6,84.6,42.9,74.7,42.9z
		 M74.7,13c-5.9,0-11.2,4.7-11.2,11.6s5,11.7,11.2,11.7s11.2-4.8,11.2-11.7C85.9,17.8,80.7,13,74.7,13z"/>
	<path d="M97.2,31.4h7.7c0.3,3.3,2.5,5.4,5.6,5.4c2.5,0,4.5-1.3,4.5-3.6c0-2.2-1.5-3.6-4.5-4.8l-4.3-1.7c-4.6-1.8-8.4-5.2-8.4-10.6
		c0-5.9,5.1-9.8,11.6-9.8c5.6,0,11.1,2.6,12.2,11h-7.7c-0.4-2.9-2.3-4.9-4.8-4.9c-2.1,0-4,1.2-4,3.4s1.6,3.5,4.6,4.7l3.9,1.5
		c5.1,2,8.8,5,8.8,10.6c0,6.4-5.9,10.3-12.2,10.3C102.5,42.9,97.4,37.7,97.2,31.4z"/>
</g>
</svg>
